<svg xmlns="http://www.w3.org/2000/svg" data-name="Layer 1" viewBox="0 0 790.856 705.638"><path fill="#e6e6e6" d="M170.964 217.275a8 8 0 0 0 0 16h100.56v-3.49a14.977 14.977 0 0 1 6.74-12.51Zm91.505-18h-34a8 8 0 1 1 0-16h34a8 8 0 0 1 0 16Zm-76.255-57h-132a8 8 0 1 1 0-16h132a8 8 0 0 1 0 16Zm-57.5-34h-17a8 8 0 1 1 0-16h17a8 8 0 0 1 0 16Z"/><path fill="#ccc" d="M270.52 378.17H146.082a17.02 17.02 0 0 1-17-17V164.33a17.02 17.02 0 0 1 17-17h198.774a17.02 17.02 0 0 1 17 17v48.788h-2V164.33a15.017 15.017 0 0 0-15-15H146.082a15.017 15.017 0 0 0-15 15v196.84a15.017 15.017 0 0 0 15 15H270.52Z"/><path fill="#ccc" d="M130.082 260.334h-90.71a17.02 17.02 0 0 1-17-17V83.275a17.02 17.02 0 0 1 17-17h161.682a17.02 17.02 0 0 1 17 17v65.055h-2V83.275a15.017 15.017 0 0 0-15-15H39.373a15.017 15.017 0 0 0-15 15v160.059a15.017 15.017 0 0 0 15 15h90.71Z"/><path fill="#e6e6e6" d="M534.964 217.275a14.977 14.977 0 0 1 6.74 12.51v3.49h100.56a8 8 0 0 0 0-16Zm7.795-26a8.01 8.01 0 0 1 8-8h34a8 8 0 1 1 0 16h-34a8.01 8.01 0 0 1-8-8Zm76.256-57a8.01 8.01 0 0 1 8-8h132a8 8 0 1 1 0 16h-132a8.01 8.01 0 0 1-8-8Zm57.5-34a8.01 8.01 0 0 1 8-8h17a8 8 0 1 1 0 16h-17a8.01 8.01 0 0 1-8-8Z"/><path fill="#ccc" d="M542.708 378.17h124.438a17.02 17.02 0 0 0 17-17V164.33a17.02 17.02 0 0 0-17-17H468.372a17.02 17.02 0 0 0-17 17v48.788h2V164.33a15.017 15.017 0 0 1 15-15h198.774a15.017 15.017 0 0 1 15 15v196.84a15.017 15.017 0 0 1-15 15H542.708Z"/><path fill="#ccc" d="M683.146 260.334h90.71a17.02 17.02 0 0 0 17-17V83.275a17.02 17.02 0 0 0-17-17H612.173a17.02 17.02 0 0 0-17 17v65.055h2V83.275a15.017 15.017 0 0 1 15-15h161.682a15.017 15.017 0 0 1 15 15v160.059a15.017 15.017 0 0 1-15 15h-90.71Z"/><path fill="#3f3d56" d="M526.284 212.785h-239.76a17.034 17.034 0 0 0-17 17v237.49a17.018 17.018 0 0 0 17 17h239.76a17.018 17.018 0 0 0 17-17v-237.49a17.018 17.018 0 0 0-17-17Zm15 254.49a15.018 15.018 0 0 1-15 15h-239.76a15.018 15.018 0 0 1-15-15v-237.49a15.023 15.023 0 0 1 15-15h239.76a15.018 15.018 0 0 1 15 15Z"/><path fill="#ccc" d="M507.403 305.275h-202a8 8 0 1 1 0-16h202a8 8 0 0 1 0 16Z"/><path fill="#1a9bb6" d="M449.903 271.275h-87a8 8 0 1 1 0-16h87a8 8 0 0 1 0 16Z"/><path fill="#ccc" d="M391.903 353.275h-87a8 8 0 1 1 0-16h87a8 8 0 0 1 0 16Zm0 35h-87a8 8 0 1 1 0-16h87a8 8 0 0 1 0 16Zm0 35h-87a8 8 0 1 1 0-16h87a8 8 0 0 1 0 16Z"/><circle cx="500.409" cy="345.205" r="14.929" fill="#1a9bb6" data-name="Ellipse 44"/><path fill="#fff" d="M498.93 350.9a1.548 1.548 0 0 1-.931-.31l-.017-.013-3.509-2.683a1.56 1.56 0 0 1 1.898-2.475l2.272 1.742 5.37-7.006a1.559 1.559 0 0 1 2.185-.288l-.032.046.034-.046a1.56 1.56 0 0 1 .288 2.186l-6.316 8.237a1.56 1.56 0 0 1-1.24.608Z" data-name="Path 395"/><path fill="#ccc" d="M120.214 46.41a23.205 23.205 0 1 1 23.204-23.205 23.231 23.231 0 0 1-23.204 23.204Zm0-44.41a21.205 21.205 0 1 0 21.204 21.205A21.229 21.229 0 0 0 120.214 2Z"/><path fill="#ccc" d="M118.013 31.675a2.303 2.303 0 0 1-1.385-.46l-.025-.02-5.219-3.991a2.319 2.319 0 1 1 2.822-3.68l3.38 2.591 7.988-10.42a2.318 2.318 0 0 1 3.25-.43v.001l-.05.069.052-.069a2.32 2.32 0 0 1 .429 3.25l-9.395 12.252a2.32 2.32 0 0 1-1.845.904Z" data-name="Path 395"/><path fill="#ccc" d="M267.41 127.41a23.205 23.205 0 1 1 23.204-23.205 23.23 23.23 0 0 1-23.205 23.204Zm0-44.41a21.205 21.205 0 1 0 21.204 21.205A21.229 21.229 0 0 0 267.41 83Z"/><path fill="#ccc" d="M265.21 112.675a2.303 2.303 0 0 1-1.386-.46l-.025-.02-5.219-3.991a2.319 2.319 0 1 1 2.822-3.68l3.38 2.591 7.988-10.42a2.318 2.318 0 0 1 3.25-.43v.001l-.05.069.052-.069a2.32 2.32 0 0 1 .428 3.25l-9.394 12.252a2.32 2.32 0 0 1-1.845.904Z" data-name="Path 395"/><circle cx="500.409" cy="380.205" r="14.929" fill="#1a9bb6" data-name="Ellipse 44"/><path fill="#fff" d="M498.93 385.9a1.548 1.548 0 0 1-.931-.31l-.017-.013-3.509-2.683a1.56 1.56 0 0 1 1.898-2.475l2.272 1.742 5.37-7.006a1.559 1.559 0 0 1 2.185-.288l-.032.046.034-.046a1.56 1.56 0 0 1 .288 2.186l-6.316 8.237a1.56 1.56 0 0 1-1.24.608Z" data-name="Path 395"/><circle cx="500.409" cy="415.275" r="14.929" fill="#1a9bb6" data-name="Ellipse 44"/><path fill="#fff" d="M498.93 420.97a1.548 1.548 0 0 1-.931-.31l-.017-.012-3.509-2.684a1.56 1.56 0 0 1 1.898-2.474l2.272 1.742 5.37-7.006a1.559 1.559 0 0 1 2.185-.288l-.032.046.034-.046a1.56 1.56 0 0 1 .288 2.186l-6.316 8.237a1.56 1.56 0 0 1-1.24.608Z" data-name="Path 395"/><path fill="#1a9bb6" d="M406.425 192.41c-15.749-.27-22.906-12.219-22.905-23.207 0-10.99 7.159-22.937 22.872-23.203h.034c15.716.268 22.873 12.217 22.873 23.206s-7.16 22.937-22.874 23.203ZM406.41 148c-14.352.251-20.89 11.165-20.89 21.203 0 10.042 6.54 20.961 20.906 21.206 14.33-.243 20.872-11.161 20.873-21.203 0-10.038-6.537-20.952-20.89-21.206Z"/><path fill="#1a9bb6" d="M411.617 170.465c4.015 6.973-7.004 9.697-11.22 5.496l1.056-2.256c6.854 5.92 12.893-4.335 2.424-3.36v-2.472c9.587.773 4.202-8.877-2.184-3.168l-1.032-2.256c5.205-5.402 16.89 1.13 8.64 6.527a4.112 4.112 0 0 1 2.316 1.489Z"/><path fill="#ccc" d="M547.41 127.41a23.205 23.205 0 1 1 23.204-23.205 23.23 23.23 0 0 1-23.205 23.204Zm0-44.41a21.205 21.205 0 1 0 21.204 21.205A21.229 21.229 0 0 0 547.41 83Z"/><path fill="#ccc" d="M553.853 109.413h-2.424v3.335h-3.024v-3.335h-7.44v-2.305l7.992-11.447h2.472v11.328h2.424Zm-5.448-2.424v-6.505l-4.512 6.505Zm144.61-60.58a23.205 23.205 0 1 1 23.205-23.204 23.231 23.231 0 0 1-23.205 23.204Zm0-44.409a21.205 21.205 0 1 0 21.205 21.205A21.229 21.229 0 0 0 693.015 2Z"/><path fill="#ccc" d="M696.47 21.417a4.765 4.765 0 0 1 1.897 1.92 5.862 5.862 0 0 1 .672 2.843 5.663 5.663 0 0 1-.768 2.965 5.143 5.143 0 0 1-2.208 1.991 7.469 7.469 0 0 1-3.336.708 9.613 9.613 0 0 1-3.168-.54 7.358 7.358 0 0 1-2.568-1.451l1.032-2.257a7.77 7.77 0 0 0 4.752 1.777 3.451 3.451 0 0 0 2.46-.804 3.44 3.44 0 0 0-.024-4.56 3.214 3.214 0 0 0-2.34-.852 4.856 4.856 0 0 0-1.896.372 4.482 4.482 0 0 0-1.56 1.091h-1.872V14.565h10.704v2.4h-7.68v4.655a5.306 5.306 0 0 1 3.072-.887 5.709 5.709 0 0 1 2.832.684Z"/><path fill="#ffb8b8" d="M148.194 520.85a10.056 10.056 0 0 1 6.68-13.897l3.032-35.606 14.579 11.501-5.114 32.049a10.11 10.11 0 0 1-19.177 5.953Z"/><path fill="#1a9bb6" d="M157.57 503.216a4.497 4.497 0 0 1-3.903-4.27l-1.688-40.408a89.1 89.1 0 0 1 8.61-42.093l14.968-31.364a13.43 13.43 0 0 1 10.087-7.01 12.88 12.88 0 0 1 11.235 3.99 16.89 16.89 0 0 1 1.923 2.481 12.922 12.922 0 0 1 .682 12.304l-22.951 62.7-1.766 40.848a4.5 4.5 0 0 1-5.029 4.274l-12.108-1.444Z"/><path fill="#ffb8b8" d="m114.63 679.762 11.226 4.928 24.348-40.956-16.568-7.272-19.006 43.3z"/><path fill="#2f2e41" d="m113.375 674.84 22.108 9.704h.001a15.386 15.386 0 0 1 7.904 20.274l-.201.458-36.197-15.889Z"/><path fill="#ffb8b8" d="M265.342 693.391h12.26l5.832-47.288-18.094.001.002 47.287z"/><path fill="#2f2e41" d="m262.215 689.389 24.144-.001a15.386 15.386 0 0 1 15.387 15.386v.5l-39.53.002Zm-120.355-9.442a4.527 4.527 0 0 1-1.389-.22l-20.787-6.681a4.52 4.52 0 0 1-2.927-5.6l68.936-219.516 51.634-10.125.182.296c34.137 55.548 45.532 140.402 52.76 230.308a4.526 4.526 0 0 1-4.04 4.842l-22.726 2.272a4.474 4.474 0 0 1-4.79-3.298L217.1 525.018a1.5 1.5 0 0 0-2.825-.2L145.98 677.225a4.483 4.483 0 0 1-4.121 2.722Z"/><circle cx="212.37" cy="335.469" r="24.561" fill="#ffb8b8"/><path fill="#1a9bb6" d="m181.3 454.43-.168-.351c-.114-.24-11.43-24.245-10.377-51.935a35.657 35.657 0 0 1 34.908-34.283 35.6 35.6 0 0 1 35.641 28.799c3.154 16.099 3.075 31.347-.235 45.318l-.073.31-.313.065Z"/><path fill="#ffb8b8" d="M306.524 489.08a10.056 10.056 0 0 1-8.065-13.143l-28.29-21.833 17.565-6.026 24.172 21.656a10.11 10.11 0 0 1-5.382 19.345Z"/><path fill="#1a9bb6" d="m237.1 440.948-.065-.106-29.823-48.298a13.43 13.43 0 0 1-.429-12.275 12.876 12.876 0 0 1 9.439-7.285 16.854 16.854 0 0 1 3.126-.272 12.92 12.92 0 0 1 10.713 6.09l40.277 53.253 33.382 23.607a4.5 4.5 0 0 1 .87 6.542l-7.772 9.397a4.483 4.483 0 0 1-5.746 1.013Z"/><path fill="#2f2e41" d="M207.978 333.945c1.81-2.977 5.805-3.819 9.273-3.479s6.841 1.559 10.326 1.532c9.676-.075 17.145-11.868 13.077-20.648-3.336-7.2-11.669-10.362-19.207-12.844-15.804-5.202-33.958-10.201-48.3-1.765a30.01 30.01 0 0 0-14.444 26.74c.322 6.64 2.865 13.46.715 19.749-2.481 7.256-10.347 11.149-17.78 13.032-13.031 3.301-26.77 2.77-39.882 5.73s-26.549 10.823-30.083 23.792c-2.322 8.52.1 17.69 4.113 25.555a66.185 66.185 0 0 0 92.332 27.083c15.852-9.256 27.296-24.9 34.12-41.94a140.438 140.438 0 0 0 8.117-30.847c1.528-9.883.231-19.87-2.536-29.479a2.709 2.709 0 0 1 .159-2.21Z"/><path fill="#3f3d56" d="M382 705.638H1a1 1 0 0 1 0-2h381a1 1 0 0 1 0 2Z"/></svg>