<svg xmlns="http://www.w3.org/2000/svg" data-name="Layer 1" viewBox="0 0 676.658 577.348"><path fill="#e4e4e4" d="M315.043 528.398a24.215 24.215 0 0 0 23.383-4.12c8.19-6.874 10.758-18.195 12.847-28.681l6.18-31.017-12.938 8.909c-9.305 6.406-18.819 13.018-25.26 22.298s-9.253 21.947-4.078 31.988" data-name="Path 438"/><path fill="#f2f2f2" d="M317.04 568.108c-1.628-11.864-3.303-23.88-2.158-35.872 1.015-10.649 4.264-21.048 10.878-29.579a49.206 49.206 0 0 1 12.625-11.44c1.262-.797 2.424 1.203 1.167 1.997a46.78 46.78 0 0 0-18.504 22.325c-4.029 10.246-4.676 21.416-3.982 32.3.42 6.583 1.311 13.122 2.206 19.653a1.198 1.198 0 0 1-.808 1.423 1.163 1.163 0 0 1-1.422-.808z" data-name="Path 439"/><path fill="#e4e4e4" d="M328.762 549.072a17.825 17.825 0 0 0 15.531 8.018c7.865-.373 14.418-5.86 20.317-11.07l17.452-15.409-11.55-.553c-8.306-.397-16.826-.77-24.738 1.794s-15.207 8.726-16.654 16.915" data-name="Path 442"/><path fill="#f2f2f2" d="M312.438 574.928c7.84-13.872 16.932-29.288 33.18-34.216a37.026 37.026 0 0 1 13.956-1.44c1.482.127 1.112 2.411-.367 2.284a34.398 34.398 0 0 0-22.272 5.892c-6.28 4.275-11.17 10.218-15.307 16.52-2.535 3.86-4.806 7.884-7.077 11.902-.725 1.285-2.847.357-2.113-.942z" data-name="Path 443"/><path fill="#fff" d="M572.662 406.79H0V0h572.662z"/><path fill="#1a9bb6" d="M46.648 167.076a5.58 5.58 0 0 0 0 11.16h193.39a5.58 5.58 0 0 0 0-11.16zm0 33.479a5.58 5.58 0 1 0-.023 11.16H240.18a5.58 5.58 0 1 0 0-11.16zm0 33a5.58 5.58 0 1 0-.023 11.16H90.18a5.58 5.58 0 1 0 0-11.16z"/><path fill="#e5e5e5" d="M572.662 406.79H0V0h572.662zM9.414 397.378h553.835V9.414H9.414z"/><path fill="#e4e4e4" d="M392.472 317.406a10.037 10.037 0 0 0-.042 20.074h95.838a10.037 10.037 0 1 0 0-20.074zm0-121.548a10.037 10.037 0 0 0-.042 20.074h95.838a10.037 10.037 0 1 0 0-20.073zM46.648 322.055a5.58 5.58 0 1 0-.023 11.16H240.18a5.58 5.58 0 1 0 0-11.16zm0 33a5.58 5.58 0 1 0-.023 11.16H90.18a5.58 5.58 0 1 0 0-11.16zm0-66.479a5.58 5.58 0 0 0 0 11.16h193.39a5.58 5.58 0 0 0 0-11.16zm0-243a5.58 5.58 0 0 0 0 11.16h193.39a5.58 5.58 0 0 0 0-11.16zm0 33.479a5.58 5.58 0 1 0-.023 11.16H240.18a5.58 5.58 0 1 0 0-11.16zm0 33a5.58 5.58 0 1 0-.023 11.16H90.18a5.58 5.58 0 1 0 0-11.16zm345.824-37.649a10.037 10.037 0 0 0-.042 20.074h95.838a10.037 10.037 0 1 0 0-20.074z"/><circle cx="412.662" cy="84.348" r="18" fill="#cacaca"/><path fill="#ffb6b6" d="M444.123 210.248a9.978 9.978 0 0 0 10.276 11.334l9.558 20.7 13.997-2.74-13.91-29.043a10.032 10.032 0 0 0-19.921-.251z"/><path fill="#3f3d56" d="m540.954 288.584-39-19.291-27.52-46.707-19.236 9.305 24.964 53.957 63.064 36.405-2.272-33.669z"/><path fill="#ffb6b6" d="m452.907 564.696-12.26-.001-5.833-35.348 18.095.001-.002 35.348z"/><path fill="#2f2e41" d="m456.034 576.58-39.531-.002v-.5a15.387 15.387 0 0 1 15.386-15.386h.001l24.144.001z"/><path fill="#ffb6b6" d="m575.282 542.21-8.554 8.782-29.392-20.484 12.625-12.962 25.321 24.664z"/><path fill="#2f2e41" d="m585.977 548.262-27.582 28.318-.358-.35a15.387 15.387 0 0 1-.287-21.757l16.847-17.296zM468.064 354.326h-8.48a236.912 236.912 0 0 0-49.422 83.371l-10.13 29.659 36.102 75.59 22.528.402-25.748-80.252 25.94-34.4 1.308 69.152 83.492 43.763 16.71-24.685-67.94-37.15 11.57-58.82s23.28-19.412 9.724-49.76z"/><path fill="#3f3d56" d="m579.662 277.348-35.235-15.433-38.783 17.186s-10.982 6.247-3.982 22.247l-42.078 52.978s.078.022 52.96 16.87l47.711-42.016a58.743 58.743 0 0 0 19.407-51.832z"/><circle cx="573.749" cy="236.899" r="24.561" fill="#ffb6b6"/><path fill="#2f2e41" d="M605.557 204.305c-5.637-4.585-14.38-5.587-20.198-1.235-10.15-5.327-23.865-2.548-31.14 6.309-2.619 3.187-4.474 7.499-3.178 11.415 1.295 3.915 6.882 6.217 9.794 3.296l-.052 1.204a19.495 19.495 0 0 1-12.12 33.198l24.145 9.754c3.386 1.368 6.88 2.758 10.533 2.74s7.545-1.794 8.962-5.16l3.057 9.37a154.226 154.226 0 0 0 14.715-30.337c2.437-6.845 4.407-14.004 4.144-21.266-.263-7.262-3.025-14.702-8.662-19.288z"/><circle cx="412.662" cy="327.348" r="18" fill="#cacaca"/><circle cx="468.662" cy="205.895" r="18" fill="#1a9bb6"/><path fill="#ffb6b6" d="M469.123 200.248a9.978 9.978 0 0 0 10.276 11.334l9.558 20.7 13.997-2.74-13.91-29.043a10.032 10.032 0 0 0-19.921-.251z"/><path fill="#3f3d56" d="m565.954 278.584-39-19.291-27.52-46.707-19.236 9.305 24.964 53.957 63.064 36.405-2.272-33.669z"/><path fill="#cacaca" d="M675.658 577.348h-381a1 1 0 0 1 0-2h381a1 1 0 0 1 0 2z"/></svg>