<svg xmlns="http://www.w3.org/2000/svg" xml:space="preserve" style="enable-background:new 0 0 230.14 300.26" viewBox="0 0 230.14 300.26" y="0" x="0" id="HYDRA_x5F_Avatar" version="1.1"><style id="style2" type="text/css">.st1{fill:#00fcff}.st4{fill:#0d2161}.st9{fill:#fff8ff}.st15{fill:#0670f4}.st16{fill:#0d34ad}.st17,.st18{fill:none;stroke:#0670f4;stroke-miterlimit:10}.st18{stroke-width:.5}.st19{opacity:.48;fill:#fff8ff}</style><g id="g177"><linearGradient y2="156.12" x2="105.361" y1="290.584" x1="105.58" gradientUnits="userSpaceOnUse" id="SVGID_1_"><stop id="stop4" style="stop-color:#0d55ff;stop-opacity:0" offset=".067"/><stop id="stop6" style="stop-color:#0c5cff;stop-opacity:.1173" offset=".138"/><stop id="stop8" style="stop-color:#0b6fff;stop-opacity:.2878" offset=".241"/><stop id="stop10" style="stop-color:#088fff;stop-opacity:.4909" offset=".364"/><stop id="stop12" style="stop-color:#05bbff;stop-opacity:.719" offset=".503"/><stop id="stop14" style="stop-color:#01f3ff;stop-opacity:.9651" offset=".652"/><stop id="stop16" style="stop-color:#00fcff" offset=".674"/></linearGradient><path id="path19" d="M190.49 285.1c0-46.9-38.02-84.92-84.92-84.92S20.65 238.2 20.65 285.1" style="fill:url(#SVGID_1_)"/><g id="g175"><g id="g49"><g id="g37"><path id="path21" d="M141.15 220.08c0 12.25-15.81 22.19-35.31 22.19s-35.31-9.93-35.31-22.19c0-12.25 15.81-11.09 35.31-11.09s35.31-1.16 35.31 11.09z" class="st1"/><path id="rect23" class="st1" d="M70.52 211.55h70.63v8.53H70.52z"/><ellipse id="ellipse25" ry="22.49" rx="35.31" cy="211.55" cx="105.83" style="fill:#f1ffff"/><ellipse id="ellipse27" ry="22.19" rx="35.31" cy="211.25" cx="105.83" style="fill:#00c9f4"/><path id="path29" d="M105.83 141.16c-16.56 0-29.98 8.43-29.98 18.84v49.71c0 10.4 13.42 18.84 29.98 18.84 16.56 0 29.98-8.43 29.98-18.84V160c0-10.4-13.42-18.84-29.98-18.84z" class="st4"/><path id="path31" d="M87.99 182.42c-.67 0-1.22.55-1.22 1.22v40.59c.78.41 1.6.78 2.45 1.14v-41.73c-.01-.66-.56-1.22-1.23-1.22z" style="fill:#0d0c36"/><path id="path33" d="M92.83 189.48c-.67 0-1.22.55-1.22 1.22v35.58c.79.27 1.61.52 2.45.74V190.7a1.24 1.24 0 0 0-1.23-1.22z" class="st1"/><path id="path35" d="M97.95 191.78c-.67 0-1.22.55-1.22 1.22v34.65c.8.16 1.62.29 2.45.41V193a1.24 1.24 0 0 0-1.23-1.22z" class="st1"/></g><path id="polygon39" class="st1" d="m80.51 175.37 6.25 3.74v-1.12l-6.25-3.74z"/><path id="polygon41" class="st1" d="m80.51 172.94 6.25 3.74v-1.11l-6.25-3.75z"/><path id="path43" d="M84.22 183.08c0 1.83-.89 2.8-1.98 2.16-1.09-.63-1.98-2.62-1.98-4.45s.89-2.8 1.98-2.16c1.09.63 1.98 2.62 1.98 4.45z" class="st1"/><path id="path45" d="M84.22 192.92c0 1.83-.89 2.8-1.98 2.16-1.09-.63-1.98-2.62-1.98-4.45s.89-2.8 1.98-2.16c1.09.63 1.98 2.63 1.98 4.45z" class="st1"/><path id="path47" d="M84.22 202.77c0 1.83-.89 2.8-1.98 2.16-1.09-.63-1.98-2.62-1.98-4.45s.89-2.8 1.98-2.16c1.09.63 1.98 2.62 1.98 4.45z" class="st1"/></g><linearGradient y2="91.224" x2="148.778" y1="91.224" x1="69.743" gradientUnits="userSpaceOnUse" id="SVGID_2_"><stop id="stop51" style="stop-color:#00fcff" offset="0"/><stop id="stop53" style="stop-color:#01eeff;stop-opacity:.8696" offset=".13"/><stop id="stop55" style="stop-color:#04c9ff;stop-opacity:.6226" offset=".377"/><stop id="stop57" style="stop-color:#098dff;stop-opacity:.2882" offset=".712"/><stop id="stop59" style="stop-color:#0d55ff;stop-opacity:0" offset="1"/></linearGradient><path id="path62" d="M195.35 91.08c0-39.6-30.43-72.06-69.18-75.34-1.16.12-2.31.28-3.46.49-.96.17-1.92.37-2.87.6-.23.05-.45.12-.68.17-.73.18-1.45.39-2.18.6-.28.09-.57.17-.85.26-.69.22-1.37.46-2.05.72-.27.1-.54.19-.8.3-.92.36-1.84.75-2.74 1.17-11.73 5.5-23.93 16.68-28.73 39.25-1.36 6.41.02 13.09 3.86 18.4 7.57 10.46 18.7 32.67 5.08 61.13l6.54 20.14a72.31 72.31 0 0 0 1.81 4.86 75.844 75.844 0 0 0 20.62 2.87c41.77.01 75.63-33.85 75.63-75.62z" style="fill:url(#SVGID_2_)"/><linearGradient y2="37.835" x2="56.948" y1="124.244" x1="158.816" gradientUnits="userSpaceOnUse" id="SVGID_3_"><stop id="stop64" style="stop-color:#0d55ff;stop-opacity:0" offset="0"/><stop id="stop66" style="stop-color:#098dff;stop-opacity:.2882" offset=".288"/><stop id="stop68" style="stop-color:#04c9ff;stop-opacity:.6226" offset=".623"/><stop id="stop70" style="stop-color:#01eeff;stop-opacity:.8696" offset=".87"/><stop id="stop72" style="stop-color:#00fcff" offset="1"/></linearGradient><circle id="circle75" r="75.63" cy="91.08" cx="119.72" style="fill:url(#SVGID_3_)"/><linearGradient y2="7.483" x2="9.549" y1="80.63" x1="95.782" gradientUnits="userSpaceOnUse" id="SVGID_4_"><stop id="stop77" style="stop-color:#0d55ff;stop-opacity:0" offset="0"/><stop id="stop79" style="stop-color:#098dff;stop-opacity:.2882" offset=".288"/><stop id="stop81" style="stop-color:#04c9ff;stop-opacity:.6226" offset=".623"/><stop id="stop83" style="stop-color:#01eeff;stop-opacity:.8696" offset=".87"/><stop id="stop85" style="stop-color:#00fcff" offset="1"/></linearGradient><path id="path88" d="M53.51 91.08c0-40.19 31.35-73.03 70.92-75.47-1.56-.1-3.13-.16-4.71-.16-41.77 0-75.63 33.86-75.63 75.63 0 41.77 33.86 75.63 75.63 75.63 1.58 0 3.15-.06 4.71-.16-39.57-2.44-70.92-35.29-70.92-75.47z" style="fill:url(#SVGID_4_)"/><path id="path90" d="m96.1 141.08 6.54 20.14a67.917 67.917 0 0 0 38.42 41.68l25.28 10.55s7.66 3.83 23.84-3.83 12.35-23.73 11.49-31.88l7.24-50.71v-11.87c0-7.07-.21-12.38-.93-19.4-.81-7.91-2.23-17.52-3.94-25.3 0 0-6.87-33.99-47.58-49.2-13.18-4.92-27.84-4.93-40.57 1.04-11.73 5.5-23.94 16.68-28.73 39.25-1.36 6.41.02 13.09 3.86 18.4 7.57 10.47 18.7 32.68 5.08 61.13z" class="st9"/><path id="path92" d="M139.38 21.26a58.93 58.93 0 0 0-10.54-2.79c-4.25.74-8.41 2-12.4 3.83-11.95 5.5-24.38 16.68-29.27 39.25-1.39 6.41.02 13.09 3.93 18.4 7.71 10.46 19.05 32.67 5.17 61.13l6.66 20.14c6.23 18.83 20.52 34.05 39.14 41.68l24.39 5.35s1.26 5.75 14.43 4.89c.53-.03 6.26-1.79 9.28-3.52 6.1-10.59-4.15-26.19-4.75-31.88l7.37-50.71 8.83-12.64c0-15.03-4.91-26.89-13.8-43.92.02 0-6.98-33.99-48.44-49.21z" class="st1"/><path id="path94" d="M138.41 21.26a56.98 56.98 0 0 0-10.35-2.79c-4.17.74-8.26 2-12.17 3.83-11.73 5.5-23.93 16.68-28.73 39.25-1.36 6.41.02 13.09 3.86 18.4 7.57 10.46 18.7 32.67 5.08 61.13l6.54 20.14a67.917 67.917 0 0 0 38.42 41.68l25.28 10.55s6.68 2.36 15.36-.56c4.93-12.15 2.51-29.46 1.91-35.15l7.24-50.71-11.41-9.13c0-15.03 3.41-27.7 6.54-47.43.01 0-6.86-33.99-47.57-49.21z" style="fill:#dcf2ff"/><path id="path96" d="M153.49 181.19c-1.74 0-3.28 1-4.3 2.53-8.63-8.23-20.51-19.74-21.77-21.43.09-4.05.35-7.75.74-11.09l16.2 16.01c.13 1.94 1.48 3.48 3.14 3.48 1.75 0 3.17-1.69 3.17-3.77s-1.42-3.77-3.17-3.77c-1.28 0-2.37.91-2.87 2.2l-16.24-16.05c1.95-14.78 6.08-22.16 6.14-22.27l-1.32-.74c-.35.61-6.91 12.32-7.34 36.16h-.02c0 .03 0 .06.01.1-.08 4.78.08 10.05.59 15.82-10.36-27.99-4.2-53.91-4.11-54.27l-1.48-.36c-.1.39-7.12 29.83 6.15 60.09 0 .03.01.06.01.09h.03c2.5 5.69 5.75 11.41 9.87 16.97.97.48 1.96.94 2.96 1.38a85.994 85.994 0 0 1-11.38-18.84c-.83-6.97-1.15-13.29-1.12-18.96 2.22 2.41 7.69 7.88 21.08 20.64a7.88 7.88 0 0 0-.54 2.87c0 3.74 2.5 6.79 5.57 6.79 3.07 0 5.57-3.05 5.57-6.79 0-3.75-2.5-6.79-5.57-6.79zm-5.99-16.54c.89 0 1.64 1.04 1.64 2.27s-.75 2.27-1.64 2.27c-.89 0-1.65-1.04-1.65-2.27s.76-2.27 1.65-2.27zm5.99 28.61c-2.23 0-4.05-2.37-4.05-5.29 0-.96.21-1.85.56-2.63l.43-.44c-.04-.04-.09-.09-.14-.13.74-1.26 1.89-2.08 3.2-2.08 2.23 0 4.05 2.37 4.05 5.29 0 2.91-1.81 5.28-4.05 5.28z" class="st9"/><path id="path98" d="M153.07 181.18c-1.72 0-3.24 1-4.25 2.53-8.52-8.23-20.26-19.74-21.51-21.43.09-4.05.35-7.75.73-11.09l16 16c.12 1.94 1.46 3.48 3.1 3.48 1.72 0 3.13-1.69 3.13-3.77s-1.4-3.77-3.13-3.77c-1.26 0-2.34.91-2.84 2.2l-16.04-16.04c1.93-14.78 6-22.16 6.07-22.27l-1.31-.74c-.35.61-6.83 12.32-7.26 36.16h-.02c0 .03 0 .06.01.1-.08 4.78.08 10.05.58 15.82-10.23-27.99-4.15-53.91-4.06-54.27l-1.46-.36c-.1.39-7.03 29.83 6.07 60.09 0 .03.01.06.01.09h.03a88.142 88.142 0 0 0 9.75 16.97c.96.48 1.94.94 2.92 1.38a86.84 86.84 0 0 1-11.25-18.84c-.82-6.97-1.14-13.29-1.1-18.96 2.19 2.41 7.59 7.88 20.82 20.64-.33.87-.53 1.84-.53 2.87 0 3.74 2.47 6.79 5.5 6.79s5.5-3.05 5.5-6.79c.05-3.74-2.42-6.79-5.46-6.79zm-5.92-16.53c.88 0 1.62 1.04 1.62 2.27s-.74 2.27-1.62 2.27c-.88 0-1.63-1.04-1.63-2.27s.75-2.27 1.63-2.27zm5.92 28.61c-2.21 0-4-2.37-4-5.29 0-.96.21-1.85.55-2.63l.43-.44c-.04-.04-.09-.09-.14-.13.73-1.26 1.87-2.08 3.16-2.08 2.21 0 4 2.37 4 5.29.01 2.91-1.79 5.28-4 5.28z" class="st1"/><path id="path100" d="m168.73 213.45-25.28-10.55a67.917 67.917 0 0 1-38.42-41.68l-6.54-20.14c13.62-28.45 2.49-50.66-5.08-61.13-3.84-5.31-5.22-11.99-3.86-18.4 4.8-22.57 17-33.75 28.73-39.25 3.55-1.66 6.99-3.05 9.78-3.83-4.17.74-8.26 2-12.17 3.83-11.73 5.5-23.93 16.68-28.73 39.25-1.36 6.41.02 13.09 3.86 18.4 7.57 10.46 18.7 32.67 5.08 61.13l6.54 20.14a67.917 67.917 0 0 0 38.42 41.68l25.28 10.55s2.32 1.15 7.1.92c-3.16-.15-4.71-.92-4.71-.92z" style="fill:#fff"/><g id="g106"><path id="path104" d="M100.28 95.77v2.98c1.75 8.26 2.51 17.31.99 27.33.55 1.01 1.1 2.05 1.63 3.14 97.79 40.93 106.01-2.18 106.01-2.18s1.05-14.1-.93-31.27c-40.49 24-107.7 0-107.7 0z" class="st9"/></g><g id="g110"><path id="path108" d="M100.28 95.77v2.98c1.75 8.26 2.51 17.31.99 27.33.55 1.01 1.1 2.05 1.63 3.14 95.84 38.26 106.01-2.18 106.01-2.18s1.05-14.1-.93-31.27c-40.49 24-107.7 0-107.7 0z" style="fill:#cfdef7"/></g><g id="g114"><path id="path112" d="M100.28 95.77v2.98c1.75 8.26 2.51 17.31.99 27.33.55 1.01 1.1 2.05 1.63 3.14 81.15 25.59 106.01-2.18 106.01-2.18s3.34-15.99-.93-31.27c-40.49 24-107.7 0-107.7 0z" class="st4"/></g><linearGradient y2="45.736" x2="185.556" y1="131.938" x1="160.732" gradientUnits="userSpaceOnUse" id="SVGID_5_"><stop id="stop116" style="stop-color:#0d55ff;stop-opacity:0" offset="0"/><stop id="stop118" style="stop-color:#0b69ff;stop-opacity:.0627" offset=".063"/><stop id="stop120" style="stop-color:#0896ff;stop-opacity:.22" offset=".22"/><stop id="stop122" style="stop-color:#05baff;stop-opacity:.3786" offset=".379"/><stop id="stop124" style="stop-color:#03d7ff;stop-opacity:.5364" offset=".536"/><stop id="stop126" style="stop-color:#01ecff;stop-opacity:.693" offset=".693"/><stop id="stop128" style="stop-color:#00f8ff;stop-opacity:.8481" offset=".848"/><stop id="stop130" style="stop-color:#00fcff" offset="1"/></linearGradient><path id="path133" d="m208.21 112.94-22.97 22.97a70.3 70.3 0 0 0 4.06-.93h.01l18.9-18.9c.01-.99.02-2.04 0-3.14zm-69.46-5.86c-6.86 6.87-12.49 14.75-20.24 22.47a311.87 311.87 0 0 0 5.72 1.6c1.46.39 2.89.76 4.31 1.11.36.09.72.18 1.08.26 1.44.35 2.86.68 4.25.99.2.04.39.08.59.13 7.97 1.74 15.16 2.82 21.62 3.39l31.54-31.54c-15.08 3.37-35.07 3.71-48.87 1.59zm68.22-6.45-.03-.17c-.14-.73-.3-1.47-.47-2.21-2.97 1.76-6.11 3.23-9.36 4.44l-34.75 34.75c.52.02 1.02.03 1.53.05.65.02 1.3.03 1.93.04.65.01 1.29.02 1.92.01h.29c1.64-.01 3.23-.06 4.76-.14l34.56-34.56c-.1-.73-.23-1.47-.38-2.21z" style="fill:url(#SVGID_5_)"/><g id="g145"><path id="path135" d="M104.77 109.95c-.14 8.37-4.81 12.88-10.42 10.06-5.62-2.82-10.05-11.89-9.91-20.27.14-8.37 4.81-12.88 10.42-10.06 5.61 2.82 10.05 11.9 9.91 20.27z" class="st15"/><path id="path137" d="M102.28 110.49c-.14 8.37-4.81 12.88-10.42 10.06-5.62-2.82-10.05-11.89-9.91-20.27.14-8.37 4.81-12.88 10.42-10.06 5.62 2.82 10.06 11.9 9.91 20.27z" class="st1"/><path id="path139" d="M96.15 107.41c-.06 3.32-1.91 5.11-4.13 3.99-2.23-1.12-3.99-4.72-3.93-8.04.06-3.32 1.91-5.11 4.13-3.99 2.22 1.12 3.98 4.72 3.93 8.04z" class="st16"/><path id="path141" d="M100.45 109.57c-.12 6.86-3.94 10.55-8.54 8.24-4.6-2.31-8.24-9.74-8.12-16.6.12-6.86 3.94-10.55 8.54-8.24 4.6 2.3 8.23 9.74 8.12 16.6z" class="st17"/><path id="path143" d="M98.51 108.6c-.09 5.27-3.03 8.1-6.56 6.33-3.53-1.77-6.33-7.48-6.24-12.75.09-5.27 3.03-8.1 6.56-6.33 3.54 1.77 6.33 7.48 6.24 12.75z" class="st18"/></g><g id="g157"><path id="path147" d="M70.83 124.94c-.14 8.37-4.81 12.88-10.42 10.06-5.62-2.82-10.05-11.89-9.91-20.27.14-8.37 4.81-12.88 10.42-10.06s10.05 11.89 9.91 20.27z" class="st15"/><path id="path149" d="M68.34 125.48c-.14 8.37-4.81 12.88-10.42 10.06-5.62-2.82-10.05-11.89-9.91-20.27.14-8.37 4.81-12.88 10.42-10.06 5.62 2.82 10.05 11.89 9.91 20.27z" class="st1"/><path id="path151" d="M62.21 122.4c-.06 3.32-1.91 5.11-4.13 3.99-2.23-1.12-3.99-4.72-3.93-8.04.06-3.32 1.91-5.11 4.13-3.99 2.22 1.12 3.98 4.72 3.93 8.04z" class="st16"/><path id="path153" d="M66.5 124.56c-.12 6.86-3.94 10.55-8.54 8.24-4.6-2.31-8.24-9.74-8.12-16.6.12-6.86 3.94-10.55 8.54-8.24 4.6 2.3 8.24 9.74 8.12 16.6z" class="st17"/><path id="path155" d="M64.57 123.59c-.09 5.27-3.03 8.1-6.56 6.33-3.53-1.77-6.33-7.48-6.24-12.75.09-5.27 3.03-8.1 6.56-6.33 3.54 1.77 6.33 7.48 6.24 12.75z" class="st18"/></g><g id="g169"><path id="path159" d="M105.11 143.87c-.29 17.39-9.98 26.74-21.65 20.89-11.66-5.86-20.88-24.7-20.58-42.09.29-17.39 9.98-26.74 21.65-20.89 11.66 5.85 20.87 24.69 20.58 42.09z" class="st15"/><path id="path161" d="M99.95 144.99c-.29 17.39-9.98 26.74-21.65 20.89-11.66-5.86-20.88-24.7-20.58-42.09.29-17.39 9.98-26.74 21.65-20.89s20.88 24.7 20.58 42.09z" class="st1"/><path id="path163" d="M87.21 138.59c-.12 6.9-3.96 10.6-8.58 8.28-4.62-2.32-8.28-9.79-8.16-16.69.12-6.9 3.96-10.6 8.58-8.28 4.62 2.32 8.28 9.79 8.16 16.69z" class="st16"/><path id="path165" d="M96.13 143.07c-.24 14.25-8.18 21.91-17.73 17.11-9.55-4.8-17.1-20.23-16.86-34.48.24-14.25 8.18-21.91 17.73-17.11 9.56 4.8 17.1 20.23 16.86 34.48z" class="st17"/><path id="path167" d="M92.12 141.06c-.18 10.94-6.28 16.82-13.62 13.14-7.34-3.68-13.14-15.54-12.95-26.49.18-10.94 6.28-16.83 13.62-13.14 7.34 3.69 13.14 15.54 12.95 26.49z" class="st18"/></g><circle r="30.72" id="ellipse171" cy="60.39" cx="126.64" class="st19" transform="rotate(-45.001 126.644 60.392)"/><circle id="circle173" r="12.57" cy="65.6" cx="157.37" class="st19"/></g></g></svg>