<svg xmlns="http://www.w3.org/2000/svg" xmlns:xlink="http://www.w3.org/1999/xlink" data-name="Layer 1" viewBox="0 0 866 720.37"><defs><linearGradient id="a" x1="660.5" x2="660.5" y1="458.72" gradientUnits="userSpaceOnUse"><stop offset="0" stop-color="gray" stop-opacity=".25"/><stop offset=".54" stop-color="gray" stop-opacity=".12"/><stop offset="1" stop-color="gray" stop-opacity=".1"/></linearGradient><linearGradient id="b" x1="802.94" x2="802.94" y1="120.14" y2="40.02" xlink:href="#a"/><linearGradient id="c" x1="802.94" x2="802.94" y1="269.14" y2="189.02" xlink:href="#a"/><linearGradient id="d" x1="802.94" x2="802.94" y1="417.14" y2="337.02" xlink:href="#a"/><linearGradient id="e" x1="475.1" x2="475.1" y1="785.18" y2="418.21" xlink:href="#a"/><linearGradient id="f" x1="475.5" x2="475.5" y1="810.19" y2="750.5" xlink:href="#a"/><linearGradient id="g" x1="459.55" x2="459.55" y1="723.31" y2="473.18" xlink:href="#a"/></defs><path fill="url(#a)" d="M455 0h411v458.72H455z" opacity=".8"/><path fill="#fff" d="M461.79 306.27H859.2v142.46H461.79z"/><path fill="#64ffda" d="M494.41 340.06h15.4v73h-15.4z"/><path fill="#64ffda" d="M524.81 340.06h15.4v73h-15.4z" opacity=".7"/><path fill="#64ffda" d="M555.22 340.06h15.4v73h-15.4z" opacity=".6"/><path fill="#64ffda" d="M585.62 340.06h15.4v73h-15.4zm30.4 0h15.4v73h-15.4z" opacity=".5"/><path fill="#64ffda" d="M646.42 340.06h15.4v73h-15.4z" opacity=".4"/><path fill="#64ffda" d="M676.83 340.06h15.4v73h-15.4z" opacity=".3"/><circle cx="802.94" cy="376.09" r="37.16" fill="#1a9bb6"/><path fill="#fff" d="M461.79 158.26H859.2v142.46H461.79z"/><path fill="#64ffda" d="M494.41 192.05h15.4v73h-15.4z"/><path fill="#64ffda" d="M524.81 192.05h15.4v73h-15.4z" opacity=".7"/><path fill="#64ffda" d="M555.22 192.05h15.4v73h-15.4z" opacity=".6"/><path fill="#64ffda" d="M585.62 192.05h15.4v73h-15.4zm30.4 0h15.4v73h-15.4z" opacity=".5"/><path fill="#64ffda" d="M646.42 192.05h15.4v73h-15.4z" opacity=".4"/><path fill="#64ffda" d="M676.83 192.05h15.4v73h-15.4z" opacity=".3"/><circle cx="802.94" cy="228.09" r="37.16" fill="#1a9bb6"/><path fill="#fff" d="M461.79 10.25H859.2v142.46H461.79z"/><path fill="#64ffda" d="M494.41 44.05h15.4v73h-15.4z"/><path fill="#64ffda" d="M524.81 44.05h15.4v73h-15.4z" opacity=".7"/><path fill="#64ffda" d="M555.22 44.05h15.4v73h-15.4z" opacity=".6"/><path fill="#64ffda" d="M585.62 44.05h15.4v73h-15.4zm30.4 0h15.4v73h-15.4z" opacity=".5"/><path fill="#64ffda" d="M646.42 44.05h15.4v73h-15.4z" opacity=".4"/><path fill="#64ffda" d="M676.83 44.05h15.4v73h-15.4z" opacity=".3"/><circle cx="802.94" cy="80.08" r="40.06" fill="url(#b)"/><circle cx="802.94" cy="229.08" r="40.06" fill="url(#c)"/><circle cx="802.94" cy="377.08" r="40.06" fill="url(#d)"/><circle cx="802.94" cy="80.08" r="37.16" fill="#1a9bb6"/><path fill="url(#e)" d="M750.13 785.18H200.07V434a15.8 15.8 0 0 1 15.8-15.8h518.45a15.8 15.8 0 0 1 15.8 15.8z" opacity=".8" transform="translate(-167 -89.81)"/><path fill="#fff" d="M56.45 334.85h503.3a15.8 15.8 0 0 1 15.8 15.8v344.72H40.65V350.65a15.8 15.8 0 0 1 15.8-15.8z"/><path fill="#f5f5f5" d="M57.87 355.82h500.46v328.25H57.87z"/><path fill="#e0e0e0" d="M59.79 371.76h498.34v295.32H59.79z" opacity=".8"/><path fill="#f5f5f5" d="M59.79 356.07h498.34v15.69H59.79z"/><circle cx="70.47" cy="363.67" r="3.8" fill="#ff5252"/><circle cx="80.93" cy="363.67" r="3.8" fill="#ff0"/><circle cx="91.4" cy="363.67" r="3.8" fill="#69f0ae"/><path fill="url(#f)" d="M765.52 808.77c-30.62 2.32-556.46 1.39-574.84 0-24.09-11.61-23.68-56.65-23.68-56.65l241.15-1.61.81 13.71H512.2l4-12.1h267.28s5.31 41.33-17.96 56.65z" opacity=".8" transform="translate(-167 -89.81)"/><path fill="#f5f5f5" d="M612.56 665.94H350.5a8 8 0 0 1-6.11 13.31h-100a8 8 0 0 1-6.11-13.31H3.63s-.4 39.12 23.39 49.2c18.15 1.21 537.56 2 567.8 0 22.99-13.31 17.74-49.2 17.74-49.2z"/><circle cx="58.07" cy="674.4" r="3.23" fill="#e0e0e0"/><circle cx="67.75" cy="674.4" r="3.23" fill="#e0e0e0"/><circle cx="77.43" cy="674.4" r="3.23" fill="#e0e0e0"/><path fill="url(#g)" d="m459.55 473.18-97.06 59.73s0 123.2 97.06 190.39c97.06-67.2 97.06-190.39 97.06-190.39z" opacity=".7" transform="translate(-167 -89.81)"/><path fill="#1a9bb6" d="M292.55 390.42 201 446.79s0 116.26 91.6 179.67c91.6-63.41 91.6-179.67 91.6-179.67z"/><path d="m294.11 390.42-1.57 1v234l1.57 1.1c91.6-63.41 91.6-179.67 91.6-179.67z" opacity=".05"/><path fill="#1a9bb6" d="m292.55 404.04-81 49.86s0 102.84 81 158.94c81-56.1 81-158.94 81-158.94z"/><path d="M292.55 404.43v208.76c81-56.1 81-158.94 81-158.94z" opacity=".08"/><path fill="none" stroke="#3ad29f" stroke-dasharray="12" stroke-miterlimit="10" stroke-width="2" d="M239 306.38v-207h171"/><path fill="none" stroke="#3ad29f" stroke-dasharray="12" stroke-miterlimit="10" stroke-width="2" d="M186 243.38v-207h171m359 441v162h-90"/><path fill="none" stroke="#3ad29f" stroke-dasharray="12" stroke-miterlimit="10" stroke-width="2" d="M770 513.38v162h-90"/></svg>